<svg xmlns="http://www.w3.org/2000/svg" viewBox="0 0 611.67 376" width="610px" height="376px"><defs><style>.cls-1{fill:#f4f4f4;}.cls-2{fill:#fff;}.cls-3{fill:#3f3f40;}.cls-4{fill:#00d095;}</style></defs><title>desk</title><g id="Layer_2" data-name="Layer 2"><g id="Layer_1-2" data-name="Layer 1"><path class="cls-1" d="M274.12,276.6h-93.6s-1.17,45.5-11.34,53.5H285.45C275.29,322.1,274.12,276.6,274.12,276.6Z"/><path class="cls-1" d="M228.21,276.6H181.38s-1.17,45.5-11.34,53.5"/><polygon class="cls-2" points="305.57 345.03 149.06 345.03 169.19 330.1 285.44 330.1 305.57 345.03"/><rect class="cls-1" x="149.06" y="345.03" width="156.51" height="2.82"/><rect class="cls-3" width="453.5" height="279.44" rx="11" ry="11"/><rect class="cls-4" x="16.5" y="16.94" width="420.5" height="238.5"/><path class="cls-3" d="M302.54,181.72H567.79a11,11,0,0,1,11,11V368.94a0,0,0,0,1,0,0H291.54a0,0,0,0,1,0,0V192.72A11,11,0,0,1,302.54,181.72Z"/><rect class="cls-4" x="301.99" y="193.06" width="266.35" height="161.65"/><rect class="cls-2" x="258.67" y="368.09" width="353" height="3.53"/><polygon class="cls-1" points="583.32 376 287.01 376 258.67 371.62 611.67 371.62 583.32 376"/></g></g></svg>