<svg xmlns="http://www.w3.org/2000/svg" viewBox="166 -792.875 15.01 13.843">
  <defs>
    <style>
      .cls-1 {
        fill: #fff;
      }
    </style>
  </defs>
  <path id="Path_3" data-name="Path 3" class="cls-1" d="M3.294,13.8H.375V4.42H3.294ZM1.751,3.252h0A1.612,1.612,0,0,1,0,1.626,1.648,1.648,0,0,1,1.793,0,1.612,1.612,0,0,1,3.544,1.626,1.625,1.625,0,0,1,1.751,3.252ZM15.01,13.8H11.675V8.964c0-1.251-.5-2.126-1.668-2.126A1.647,1.647,0,0,0,8.422,8.005a2.187,2.187,0,0,0-.083.751v5.087H5.045s.042-8.589,0-9.381H8.339V5.921a3.045,3.045,0,0,1,2.919-1.543c2.085,0,3.711,1.334,3.711,4.253V13.8Z" transform="translate(166 -792.875)"/>
</svg>
