<svg xmlns="http://www.w3.org/2000/svg" viewBox="243.96 -1757 33.84 33.841">
  <defs>
    <style>
      .cls-1 {
        fill: #fff;
      }
    </style>
  </defs>
  <path id="Subtraction_15" data-name="Subtraction 15" class="cls-1" d="M33.84,33.841H0V0H33.84V33.841ZM16.306,18.287h0l4.2,5.5a1.648,1.648,0,0,0,1.364.777,1.555,1.555,0,0,0,1.638-1.575,1.716,1.716,0,0,0-.441-1.134l-4.514-5.67,4.136-3.864a1.617,1.617,0,0,0,.589-1.219,1.458,1.458,0,0,0-1.491-1.49,1.821,1.821,0,0,0-1.365.63l-5.963,5.922V11.231a1.617,1.617,0,0,0-3.235,0V22.949a1.617,1.617,0,1,0,3.235,0V20.009l1.847-1.722Z" transform="translate(243.96 -1757)"/>
</svg>
