<svg xmlns="http://www.w3.org/2000/svg" viewBox="165 -1757 33.84 33.84">
  <path id="Subtraction_13" data-name="Subtraction 13" class="cls-1" d="M33.84,33.84H0V0H33.84ZM21.4,15.2v7.678a1.683,1.683,0,1,0,3.366,0V10.646a1.676,1.676,0,0,0-1.694-1.694H22.7a1.652,1.652,0,0,0-1.518.858L17.068,16.5,12.976,9.833a1.737,1.737,0,0,0-1.54-.88h-.374a1.676,1.676,0,0,0-1.694,1.694V22.922a1.661,1.661,0,0,0,3.322,0V15.266l2.926,4.511a1.585,1.585,0,0,0,2.816,0L21.4,15.2Z" transform="translate(165 -1757)"/>
</svg>
