<svg xmlns="http://www.w3.org/2000/svg" viewBox="1062.254 -673.5 71.396 55.936">
  <defs>
    <style>
      .cls-1 {
        stroke: #fff;
      }
    </style>
  </defs>
  <g id="noun_1058519_cc" transform="translate(1062.775 -673)">
    <g id="Group_39" data-name="Group 39" transform="translate(0 0)">
      <path id="Path_72" data-name="Path 72" class="cls-1" d="M71.663,40.193c-2.92-5.839-7.53-9.988-12.6-11.371A12.375,12.375,0,0,0,49.381,30.2h0a29.943,29.943,0,0,1-6.915,1.46v-4.61c0-1.383.307-4.687,3.073-4.687,2.843,0,6.147-1.152,6.147-6.531a1.537,1.537,0,1,0-3.073,0c0,2.92-1.076,3.457-3.073,3.457-3.765,0-6.147,3.073-6.147,7.76v4.687a27.776,27.776,0,0,1-9.6-1.921,11.66,11.66,0,0,0-9.758-1.383C14.883,29.82,10.2,34.046,7.2,40.039c-5.148,10.219-3.457,22.435,3.688,27.2a11.675,11.675,0,0,0,6.531,2,13.239,13.239,0,0,0,3.381-.461c4.994-1.306,9.6-5.378,12.677-11.064A16.81,16.81,0,0,1,46,57.557h0c3,5.609,7.53,9.527,12.447,10.833a11.527,11.527,0,0,0,9.681-1.537C75.044,62.244,76.657,50.258,71.663,40.193ZM66.285,64.318a8.735,8.735,0,0,1-7.222,1.076c-4.149-1.076-8.067-4.61-10.6-9.527a2.434,2.434,0,0,0-1.229-1.076h0l-.307-.077a19.868,19.868,0,0,0-15.136.307A3.081,3.081,0,0,0,30.634,56.1c-2.612,4.994-6.608,8.682-10.833,9.758A8.823,8.823,0,0,1,12.425,64.7c-5.916-3.919-7.069-14.368-2.612-23.28,2.535-5.148,6.608-8.836,10.91-9.988a10.746,10.746,0,0,1,2.612-.384,8.349,8.349,0,0,1,4.84,1.46c.077.077.154.077.307.154a31.583,31.583,0,0,0,21.9.461l.23-.077c.154-.077.231-.077.384-.154a8.911,8.911,0,0,1,7.3-1.076c4.149,1.076,8.144,4.764,10.68,9.758C73.277,50.258,72.124,60.477,66.285,64.318Z" transform="translate(-4.215 -14.3)"/>
      <path id="Path_73" data-name="Path 73" class="cls-1" d="M70.915,47.3a6.915,6.915,0,1,0,6.915,6.915A6.886,6.886,0,0,0,70.915,47.3Zm0,10.757a3.842,3.842,0,1,1,3.842-3.842A3.8,3.8,0,0,1,70.915,58.057Z" transform="translate(-18.065 -21.945)"/>
      <path id="Path_74" data-name="Path 74" class="cls-1" d="M28.757,53.11H25.683V50.037a1.537,1.537,0,1,0-3.073,0V53.11H19.537a1.537,1.537,0,1,0,0,3.073H22.61v3.073a1.537,1.537,0,1,0,3.073,0V56.183h3.073a1.537,1.537,0,1,0,0-3.073Z" transform="translate(-7.409 -22.223)"/>
    </g>
  </g>
</svg>
