<svg xmlns="http://www.w3.org/2000/svg" viewBox="606 -677 70.465 61.164">
  <path id="Path_126" data-name="Path 126" d="M72.472,10.719H7.485a2.742,2.742,0,0,0-2.739,2.739V54.024a2.742,2.742,0,0,0,2.739,2.739H32.777v9.362h-5.5a1.168,1.168,0,0,0-1.168,1.168v3.422a1.168,1.168,0,0,0,1.168,1.168h25.4a1.168,1.168,0,0,0,1.168-1.168V67.293a1.168,1.168,0,0,0-1.168-1.168h-5.5V56.762H72.472a2.742,2.742,0,0,0,2.739-2.739V13.458A2.742,2.742,0,0,0,72.472,10.719ZM51.511,68.461v1.087H28.447V68.461Zm-16.4-2.336V56.783h9.732v9.343Zm37.763-12.1a.4.4,0,0,1-.4.4H7.485a.4.4,0,0,1-.4-.4V13.458a.4.4,0,0,1,.4-.4H72.472a.4.4,0,0,1,.4.4Z" transform="translate(601.254 -687.719)"/>
</svg>
