<svg xmlns="http://www.w3.org/2000/svg" viewBox="1316.5 -676.5 43.298 61.391">
  <defs>
    <style>
      .cls-1 {
        stroke: #fff;
      }
    </style>
  </defs>
  <g id="noun_11673_cc" transform="translate(1317 -676)">
    <g id="Group_51" data-name="Group 51" transform="translate(0 0)">
      <g id="Group_49" data-name="Group 49">
        <path id="Path_88" data-name="Path 88" class="cls-1" d="M42.554,67.094c-2,0-4.492-.44-5.779-1.722C35.217,63.819,35.112,60.63,35,57.252c-.078-2.354-.166-5.023-.813-6.019a53.9,53.9,0,0,0-4.78-5.935C25.368,40.727,21.19,36,21.19,29.271a20.931,20.931,0,0,1,3.593-11.954A1.468,1.468,0,0,1,27.2,18.983a18.012,18.012,0,0,0-3.074,10.289c0,5.616,3.634,9.729,7.482,14.084a56.631,56.631,0,0,1,5.037,6.274c1.1,1.687,1.19,4.523,1.289,7.527.076,2.281.178,5.4.912,6.135a6.909,6.909,0,0,0,4.219.853,4.314,4.314,0,0,0,2.66-.742c.692-.846.821-3.755.924-6.095.136-3.065.263-5.961,1.386-7.678a56.48,56.48,0,0,1,5.041-6.285c3.843-4.352,7.474-8.461,7.474-14.074,0-10.32-7.659-17.81-18.211-17.81a19.434,19.434,0,0,0-9.284,2.29,1.469,1.469,0,1,1-1.405-2.58A22.4,22.4,0,0,1,42.341,8.525c12.056,0,21.147,8.918,21.147,20.746,0,6.723-4.173,11.448-8.209,16.017a53.621,53.621,0,0,0-4.785,5.949c-.683,1.043-.8,3.783-.91,6.2-.141,3.2-.275,6.224-1.584,7.824-1.166,1.426-3.5,1.75-4.783,1.816C43,67.088,42.782,67.094,42.554,67.094Z" transform="translate(-21.19 -8.525)"/>
      </g>
      <g id="Group_50" data-name="Group 50" transform="translate(13.993 44.269)">
        <path id="Path_89" data-name="Path 89" d="M47.332,72.961a19.183,19.183,0,0,1-7.08-1.437l1.194-2.682a16.428,16.428,0,0,0,5.886,1.183,17.533,17.533,0,0,0,6.057-1.194l1.147,2.7A20.447,20.447,0,0,1,47.332,72.961Z" transform="translate(-40.252 -68.831)"/>
      </g>
      <path id="Path_90" data-name="Path 90" d="M49.967,90.1H46.983l-2.712-3.789H52.68Z" transform="translate(-27.328 -29.211)"/>
    </g>
  </g>
</svg>
