<svg xmlns="http://www.w3.org/2000/svg" viewBox="848 -678 37.507 64.161">
  <g id="noun_734491_cc" transform="translate(848 -678)">
    <path id="Path_109" data-name="Path 109" d="M32.185,60.172a2.754,2.754,0,1,0,2.754-2.754A2.757,2.757,0,0,0,32.185,60.172Zm3.526,0a.773.773,0,1,1-.773-.773A.773.773,0,0,1,35.712,60.172Zm16.329-2.822a.991.991,0,0,0-.99.99v2.285A2.975,2.975,0,0,1,48.079,63.6H21.8a2.975,2.975,0,0,1-2.971-2.971V6.369A2.975,2.975,0,0,1,21.8,3.4h26.28A2.975,2.975,0,0,1,51.05,6.369V61.188a.99.99,0,1,0,1.981,0V19.777a1.653,1.653,0,0,0,1.323-1.618V13.825a1.652,1.652,0,0,0-1.323-1.617V6.369a4.958,4.958,0,0,0-4.952-4.952H21.8a4.958,4.958,0,0,0-4.952,4.952V60.626A4.958,4.958,0,0,0,21.8,65.578h26.28a4.958,4.958,0,0,0,4.952-4.952V58.341A.99.99,0,0,0,52.041,57.351ZM40.881,5.473a.99.99,0,0,0-.99-.99h-9.9a.99.99,0,0,0,0,1.981h9.9A.99.99,0,0,0,40.881,5.473Z" transform="translate(-16.846 -1.417)"/>
  </g>
</svg>
