<svg xmlns="http://www.w3.org/2000/svg" viewBox="966 1107 58.986 59">
  <defs>
    <style>
      .cls-1 {
        fill: #262626;
      }
    </style>
  </defs>
  <path id="Path_61" data-name="Path 61" class="cls-1" d="M58.6,46,41.714,29.11l13.97-13.97a6.746,6.746,0,0,0,0-9.5L53.263,3.219a6.746,6.746,0,0,0-9.5,0l-13.97,13.97L12.905.3a1.24,1.24,0,0,0-1.676,0L.3,11.229a1.24,1.24,0,0,0,0,1.676L17.189,29.793,3.964,43.018a6.11,6.11,0,0,0-1.676,3.1L.115,56.864a1.651,1.651,0,0,0,1.552,1.987.56.56,0,0,0,.31-.062l10.741-2.173a5.872,5.872,0,0,0,3.1-1.676L29.048,41.714,45.936,58.6a1.2,1.2,0,0,0,.807.373,1,1,0,0,0,.807-.373L58.478,47.675A1.055,1.055,0,0,0,58.6,46ZM45.44,4.833a4.348,4.348,0,0,1,6.209,0L54.07,7.255a4.461,4.461,0,0,1,0,6.209l-.248.248L45.253,5.144Zm-42.593,7.2L12.1,2.785,15.016,5.7,10.421,10.3a1.24,1.24,0,0,0,0,1.676,1.2,1.2,0,0,0,.807.373,1.093,1.093,0,0,0,.807-.373L16.63,7.379,19.549,10.3l-4.595,4.595a1.24,1.24,0,0,0,0,1.676,1.2,1.2,0,0,0,.807.373,1,1,0,0,0,.807-.373l4.595-4.595,2.918,2.918-4.595,4.595a1.24,1.24,0,0,0,0,1.676,1.2,1.2,0,0,0,.807.373,1.093,1.093,0,0,0,.807-.373L25.7,16.568l2.359,2.359L18.8,28.179ZM5.641,44.695,43.515,6.82,46.992,10.3,8.869,48.42,5.392,44.943C5.454,44.819,5.579,44.757,5.641,44.695ZM5.392,55.746,3.157,53.511,4.4,47.3l7.14,7.14Zm8.817-2.484c-.062.062-.186.124-.248.186l-3.477-3.477L48.606,11.85l3.477,3.477Zm32.659,2.794L30.787,39.976l9.251-9.251L42.4,33.084,37.8,37.679a1.24,1.24,0,0,0,0,1.676,1.2,1.2,0,0,0,.807.373,1.093,1.093,0,0,0,.807-.373l4.595-4.595,2.918,2.918-4.595,4.595a1.24,1.24,0,0,0,0,1.676,1.2,1.2,0,0,0,.807.373,1,1,0,0,0,.807-.373l4.595-4.595,2.918,2.918-4.595,4.595a1.24,1.24,0,0,0,0,1.676,1.2,1.2,0,0,0,.807.373,1.093,1.093,0,0,0,.807-.373l4.595-4.595,2.918,2.918Z" transform="translate(966.025 1107.025)"/>
</svg>
