<svg xmlns="http://www.w3.org/2000/svg" viewBox="1429 1104 41.703 62">
  <defs>
    <style>
      .cls-1 {
        fill: #262626;
      }
    </style>
  </defs>
  <g id="noun_1132415_cc" transform="translate(1426.381 1104)">
    <path id="Path_16" data-name="Path 16" class="cls-1" d="M39.6,62H7.343a4.73,4.73,0,0,1-4.724-4.724V4.724A4.73,4.73,0,0,1,7.343,0H39.6a4.73,4.73,0,0,1,4.724,4.724V57.28A4.729,4.729,0,0,1,39.6,62ZM7.343,1.938A2.789,2.789,0,0,0,4.556,4.724V57.28a2.789,2.789,0,0,0,2.786,2.786H39.6a2.787,2.787,0,0,0,2.786-2.786V4.724A2.789,2.789,0,0,0,39.6,1.938Z" transform="translate(0)"/>
    <rect id="Rectangle_21" data-name="Rectangle 21" class="cls-1" width="41.703" height="1.938" transform="translate(2.619 8.114)"/>
    <rect id="Rectangle_22" data-name="Rectangle 22" class="cls-1" width="41.703" height="1.938" transform="translate(2.619 49.891)"/>
    <path id="Path_17" data-name="Path 17" class="cls-1" d="M10.426,20.113a3.272,3.272,0,1,1,3.27-3.271A3.276,3.276,0,0,1,10.426,20.113Zm0-4.607a1.335,1.335,0,1,0,1.333,1.337A1.336,1.336,0,0,0,10.426,15.506Z" transform="translate(13.044 39.008)"/>
    <path id="Path_18" data-name="Path 18" class="cls-1" d="M14.978,1.9a.931.931,0,0,1-1,.838H8.4a.929.929,0,0,1-1-.838h0a.929.929,0,0,1,1-.838H13.98a.934.934,0,0,1,1,.838Z" transform="translate(12.763 3.053)"/>
    <path id="Path_19" data-name="Path 19" class="cls-1" d="M13.282,12.721A3.813,3.813,0,1,1,17.1,8.908,3.815,3.815,0,0,1,13.282,12.721Zm0-5.692A1.876,1.876,0,1,0,15.158,8.9,1.877,1.877,0,0,0,13.282,7.029Z" transform="translate(19.694 14.648)"/>
    <path id="Path_20" data-name="Path 20" class="cls-1" d="M34.03,4.3H5.959A2.135,2.135,0,0,0,3.828,6.428V28.806a2.135,2.135,0,0,0,2.131,2.131H34.03a2.135,2.135,0,0,0,2.131-2.131V6.428A2.135,2.135,0,0,0,34.03,4.3ZM5.959,6.234H34.03a.2.2,0,0,1,.194.194V26.16L28.287,19.2A.923.923,0,0,0,27.5,18.9a.936.936,0,0,0-.794.217L21.076,24.4,15.67,18.069a.917.917,0,0,0-.822-.287.917.917,0,0,0-.821.287L5.766,27.756V6.428A.194.194,0,0,1,5.959,6.234ZM22.447,29H7.25l7.6-8.909Zm2.368,0c-.039-.112-.027-.24-.109-.337l-2.372-2.778,5.057-4.751,6.677,7.828c-.019.008-.019.039-.039.039H24.815Z" transform="translate(3.476 12.354)"/>
  </g>
</svg>
