<svg xmlns="http://www.w3.org/2000/svg" viewBox="492.495 1103.495 84.386 62.471">
  <defs>
    <style>
      .cls-1 {
        fill: #262626;
        stroke: #fafafa;
      }
    </style>
  </defs>
  <g id="noun_453851_cc" transform="translate(490.351 1095.05)">
    <path id="Path_29" data-name="Path 29" class="cls-1" d="M76.985,62.334h5.632a1.61,1.61,0,0,0,0-3.219H75.912V22.272A3.221,3.221,0,0,0,72.7,19.054H65.189a3.222,3.222,0,0,0-3.218,3.218V59.117H57.235V33.533a3.221,3.221,0,0,0-3.218-3.218H46.51a3.222,3.222,0,0,0-3.218,3.218V59.119H38.558V43.186a3.221,3.221,0,0,0-3.218-3.218H27.833a3.221,3.221,0,0,0-3.218,3.218V59.119H19.879v-9.5A3.221,3.221,0,0,0,16.661,46.4h-7.5A3.222,3.222,0,0,0,5.94,49.619v9.5H2.456a1.61,1.61,0,0,0,0,3.219H76.985Zm-60.32-3.218H9.157v-9.5h7.508Zm18.679,0H27.836V43.184h7.508Zm18.675,0H46.512V33.533h7.508Zm18.677,0H65.189V22.272H72.7Z" transform="translate(1.803 8.078)"/>
    <path id="Path_30" data-name="Path 30" class="cls-1" d="M75.791,21.753a1.6,1.6,0,0,0,2-1.083L80,13.231a1.584,1.584,0,0,0,.052-.572,1.242,1.242,0,0,0-.027-.164,1.569,1.569,0,0,0-.121-.389,1.434,1.434,0,0,0-.4-.547.247.247,0,0,1-.029-.032s0,0-.005,0a1.586,1.586,0,0,0-.5-.265c-.02-.005-.034-.022-.052-.027L71.479,9.018a1.609,1.609,0,0,0-.916,3.084l3.721,1.107L1.686,52.635a1.61,1.61,0,0,0,1.537,2.829l72.585-39.42-1.1,3.711A1.608,1.608,0,0,0,75.791,21.753Z" transform="translate(1.803)"/>
  </g>
</svg>
