<svg xmlns="http://www.w3.org/2000/svg" viewBox="166 -850.936 15.01 12.217">
  <defs>
    <style>
      .cls-1 {
        fill: #fff;
      }
    </style>
  </defs>
  <path id="Path_2" data-name="Path 2" class="cls-1" d="M15.01,1.459a6.066,6.066,0,0,1-1.751.5A3.036,3.036,0,0,0,14.593.25,6.174,6.174,0,0,1,12.634,1a2.994,2.994,0,0,0-2.252-1A3.078,3.078,0,0,0,7.3,3.085a4.108,4.108,0,0,0,.083.709A8.879,8.879,0,0,1,1.042.584,3.283,3.283,0,0,0,.625,2.126,3,3,0,0,0,2,4.67,3.081,3.081,0,0,1,.625,4.295v.042a3.012,3.012,0,0,0,2.46,3,2.618,2.618,0,0,1-.792.125,2.753,2.753,0,0,1-.584-.042A3.055,3.055,0,0,0,4.586,9.548,6.117,6.117,0,0,1,.751,10.882,4.532,4.532,0,0,1,0,10.841a8.772,8.772,0,0,0,4.712,1.376,8.7,8.7,0,0,0,8.756-8.756V3.044A6.931,6.931,0,0,0,15.01,1.459" transform="translate(166 -850.936)"/>
</svg>
