<svg xmlns="http://www.w3.org/2000/svg" viewBox="204.48 -1757 33.84 33.841">
  <defs>
    <style>
      .cls-1 {
        fill: #fff;
      }
    </style>
  </defs>
  <path id="Subtraction_14" data-name="Subtraction 14" class="cls-1" d="M33.84,33.841H0V0H33.84V33.841ZM11.752,9.614a1.59,1.59,0,0,0-1.617,1.6,2,2,0,0,0,.189.777l4.767,11.4a1.9,1.9,0,0,0,1.827,1.282h.21a1.9,1.9,0,0,0,1.827-1.282l4.809-11.507a1.862,1.862,0,0,0,.168-.715,1.558,1.558,0,0,0-1.6-1.553,1.676,1.676,0,0,0-1.554,1.029l-3.717,9.618L13.39,10.748A1.687,1.687,0,0,0,11.752,9.614Z" transform="translate(204.48 -1757)"/>
</svg>
