<svg xmlns="http://www.w3.org/2000/svg" viewBox="7182 -419 428.945 339.598" width="428px">
  <defs>
    <style>
      .cls-1 {
        fill: #4c4d4d;
      }

      .cls-1, .cls-2, .cls-3, .cls-4, .cls-5 {
        fill-rule: evenodd;
      }

      .cls-2 {
        fill: #f24093;
      }

      .cls-3 {
        fill: #6e6e6c;
      }

      .cls-4 {
        fill: #272727;
      }

      .cls-5 {
        fill: #a600e3;
      }
    </style>
  </defs>
  <g id="Symbol_1_1" data-name="Symbol 1 – 1" transform="translate(6081 -1798)">
    <g id="Group_103" data-name="Group 103" transform="translate(1101 1379)">
      <path id="Path_148" data-name="Path 148" class="cls-1" d="M369.425,261.11h0a5.921,5.921,0,0,0,5.925-5.925V239.625a5.921,5.921,0,0,0-5.925-5.925h0a5.921,5.921,0,0,0-5.925,5.925v15.608a5.911,5.911,0,0,0,5.925,5.877Z" transform="translate(-188.396 -121.123)"/>
      <path id="Path_149" data-name="Path 149" class="cls-1" d="M371.395,349.457h0a4.091,4.091,0,0,0,4.095-4.095V312.895a4.091,4.091,0,0,0-4.095-4.095h0a4.091,4.091,0,0,0-4.095,4.095v32.468a4.091,4.091,0,0,0,4.095,4.095Z" transform="translate(-190.366 -160.046)"/>
      <path id="Path_150" data-name="Path 150" class="cls-1" d="M4.095,349.628h0a4.091,4.091,0,0,0,4.095-4.095V280.695A4.091,4.091,0,0,0,4.095,276.6h0A4.091,4.091,0,0,0,0,280.695v64.839a4.091,4.091,0,0,0,4.095,4.095Z" transform="translate(0 -143.357)"/>
      <path id="Path_151" data-name="Path 151" class="cls-2" d="M170.856,271.784c-1.349.915-2.6,1.831-3.757,2.794-11.079,12.91-11.32,27.121-12.236,38.778a41.375,41.375,0,0,1-1.686,11.031c-1.975,6.648-6.214,11.417-16.908,12.862-.723.1-1.4.193-2.12.289-1.156.193-2.36.289-3.661.434a310.263,310.263,0,0,1-63.442,0c-1.3-.1-2.5-.241-3.661-.434-.723-.1-1.4-.193-2.12-.289-10.646-1.445-14.933-6.166-16.908-12.862a41.681,41.681,0,0,1-1.686-11.031c-.915-11.658-1.156-25.868-12.236-38.778a40.075,40.075,0,0,0-3.757-2.794,38.672,38.672,0,0,1-8.093-7.467c-4.384-3.468-6.455-8.864-7.8-14.837a20.182,20.182,0,0,1-.482-4.095V90.852c0-8.189,6.07-16.33,12.717-20.617.193-.145.434-.241.626-.385.145-.1.337-.241.482-.337a42.543,42.543,0,0,0,6.359-5.588C39.058,54.338,42.43,40.368,43.49,27.458c.145-2.023.241-4.046.337-6.021,0-.578.048-1.156.048-1.782,0-11.658,5.492-17.1,16.378-17.823,1.012-.1,2.023-.193,3.035-.241a398.854,398.854,0,0,1,71.149,0c1.012.1,2.023.145,3.035.241C148.36,2.5,153.8,8,153.8,19.606c0,.578.048,1.156.048,1.782.1,2.023.193,4.046.337,6.021,1.3,15.945,5.684,32.323,19.269,42.054.145.1.337.241.482.337a2.731,2.731,0,0,0,.626.385c6.648,4.287,12.717,12.428,12.717,20.617V245.338a17.265,17.265,0,0,1-.482,4.095c-1.4,9.538-8.093,17.149-15.945,22.352Z" transform="translate(-5.338 0)"/>
      <path id="Path_152" data-name="Path 152" class="cls-3" d="M170.96,341.079c-4.624,3.035-10.261,3.324-15.752,3.324H43.016a42.613,42.613,0,0,1-14.741-2.36c-.434-.337-.915-.626-1.4-.963-7.852-5.2-14.548-12.862-15.9-22.352a20.182,20.182,0,0,1-.482-4.095V160.1c0-8.189,6.07-16.33,12.717-20.617.193-.145.434-.241.626-.385.145-.1.337-.241.482-.337,6.359-4.576,11.417-5.058,19.365-5.058H154.774c8.43,0,12.091.337,18.691,5.058.145.1.337.241.482.337a2.731,2.731,0,0,0,.626.385c6.648,4.287,12.717,12.428,12.717,20.617V314.632a17.266,17.266,0,0,1-.482,4.095c-1.3,9.538-8,17.149-15.848,22.352Z" transform="translate(-5.442 -69.295)"/>
      <path id="Path_153" data-name="Path 153" class="cls-4" d="M35.522,342.927a38.561,38.561,0,0,0,12.621,1.879H160.335c4.384,0,9.442-.048,13.2-2.553,6.648-4.432,12.717-10.983,13.873-19.124v-.145l.048-.145a13.508,13.508,0,0,0,.385-3.083V165.222c0-6.551-5.347-13.3-10.6-16.716-.193-.145-.434-.289-.626-.434l-.1-.1-.1-.1-.434-.289c-5.636-4.046-8.864-4.191-15.993-4.191H48.818c-6.7,0-11.272.289-16.667,4.191l-.434.289-.1.1-.1.1c-.193.145-.434.289-.626.434-5.3,3.42-10.6,10.164-10.6,16.716V319.756a17.292,17.292,0,0,0,.337,3.131l.048.144v.145c1.156,8,7.274,14.789,13.873,19.124.289.193.626.434.963.626Z" transform="translate(-10.521 -74.322)"/>
    </g>
    <g id="Group_104" data-name="Group 104" transform="translate(1342.991 1379)">
      <path id="Path_148-2" data-name="Path 148" class="cls-1" d="M369.425,261.11h0a5.921,5.921,0,0,0,5.925-5.925V239.625a5.921,5.921,0,0,0-5.925-5.925h0a5.921,5.921,0,0,0-5.925,5.925v15.608a5.911,5.911,0,0,0,5.925,5.877Z" transform="translate(-188.396 -121.123)"/>
      <path id="Path_149-2" data-name="Path 149" class="cls-1" d="M371.395,349.457h0a4.091,4.091,0,0,0,4.095-4.095V312.895a4.091,4.091,0,0,0-4.095-4.095h0a4.091,4.091,0,0,0-4.095,4.095v32.468a4.091,4.091,0,0,0,4.095,4.095Z" transform="translate(-190.366 -160.046)"/>
      <path id="Path_150-2" data-name="Path 150" class="cls-1" d="M4.095,349.628h0a4.091,4.091,0,0,0,4.095-4.095V280.695A4.091,4.091,0,0,0,4.095,276.6h0A4.091,4.091,0,0,0,0,280.695v64.839a4.091,4.091,0,0,0,4.095,4.095Z" transform="translate(0 -143.357)"/>
      <path id="Path_151-2" data-name="Path 151" class="cls-5" d="M170.856,271.784c-1.349.915-2.6,1.831-3.757,2.794-11.079,12.91-11.32,27.121-12.236,38.778a41.375,41.375,0,0,1-1.686,11.031c-1.975,6.648-6.214,11.417-16.908,12.862-.723.1-1.4.193-2.12.289-1.156.193-2.36.289-3.661.434a310.263,310.263,0,0,1-63.442,0c-1.3-.1-2.5-.241-3.661-.434-.723-.1-1.4-.193-2.12-.289-10.646-1.445-14.933-6.166-16.908-12.862a41.681,41.681,0,0,1-1.686-11.031c-.915-11.658-1.156-25.868-12.236-38.778a40.075,40.075,0,0,0-3.757-2.794,38.672,38.672,0,0,1-8.093-7.467c-4.384-3.468-6.455-8.864-7.8-14.837a20.182,20.182,0,0,1-.482-4.095V90.852c0-8.189,6.07-16.33,12.717-20.617.193-.145.434-.241.626-.385.145-.1.337-.241.482-.337a42.543,42.543,0,0,0,6.359-5.588C39.058,54.338,42.43,40.368,43.49,27.458c.145-2.023.241-4.046.337-6.021,0-.578.048-1.156.048-1.782,0-11.658,5.492-17.1,16.378-17.823,1.012-.1,2.023-.193,3.035-.241a398.854,398.854,0,0,1,71.149,0c1.012.1,2.023.145,3.035.241C148.36,2.5,153.8,8,153.8,19.606c0,.578.048,1.156.048,1.782.1,2.023.193,4.046.337,6.021,1.3,15.945,5.684,32.323,19.269,42.054.145.1.337.241.482.337a2.731,2.731,0,0,0,.626.385c6.648,4.287,12.717,12.428,12.717,20.617V245.338a17.265,17.265,0,0,1-.482,4.095c-1.4,9.538-8.093,17.149-15.945,22.352Z" transform="translate(-5.338 0)"/>
      <path id="Path_152-2" data-name="Path 152" class="cls-3" d="M170.96,341.079c-4.624,3.035-10.261,3.324-15.752,3.324H43.016a42.613,42.613,0,0,1-14.741-2.36c-.434-.337-.915-.626-1.4-.963-7.852-5.2-14.548-12.862-15.9-22.352a20.182,20.182,0,0,1-.482-4.095V160.1c0-8.189,6.07-16.33,12.717-20.617.193-.145.434-.241.626-.385.145-.1.337-.241.482-.337,6.359-4.576,11.417-5.058,19.365-5.058H154.774c8.43,0,12.091.337,18.691,5.058.145.1.337.241.482.337a2.731,2.731,0,0,0,.626.385c6.648,4.287,12.717,12.428,12.717,20.617V314.632a17.266,17.266,0,0,1-.482,4.095c-1.3,9.538-8,17.149-15.848,22.352Z" transform="translate(-5.442 -69.295)"/>
      <path id="Path_153-2" data-name="Path 153" class="cls-4" d="M35.522,342.927a38.561,38.561,0,0,0,12.621,1.879H160.335c4.384,0,9.442-.048,13.2-2.553,6.648-4.432,12.717-10.983,13.873-19.124v-.145l.048-.145a13.508,13.508,0,0,0,.385-3.083V165.222c0-6.551-5.347-13.3-10.6-16.716-.193-.145-.434-.289-.626-.434l-.1-.1-.1-.1-.434-.289c-5.636-4.046-8.864-4.191-15.993-4.191H48.818c-6.7,0-11.272.289-16.667,4.191l-.434.289-.1.1-.1.1c-.193.145-.434.289-.626.434-5.3,3.42-10.6,10.164-10.6,16.716V319.756a17.292,17.292,0,0,0,.337,3.131l.048.144v.145c1.156,8,7.274,14.789,13.873,19.124.289.193.626.434.963.626Z" transform="translate(-10.521 -74.322)"/>
    </g>
  </g>
</svg>
